<svg xmlns="http://www.w3.org/2000/svg" width="821" height="278" viewBox="0 0 821 278">
  <path fill="#3A3D43" fill-rule="evenodd" d="M 562.25 145.25 L 562.25 200.25 L 563.00 200.75 L 568.50 200.75 L 569.00 200.25 L 569.00 158.00 L 570.25 157.75 L 591.50 184.75 L 598.75 193.50 L 599.00 194.25 L 603.75 200.25 L 605.00 201.00 L 609.75 200.75 L 610.00 200.50 L 610.00 198.00 L 610.25 197.75 L 610.25 188.75 L 610.00 188.50 L 610.00 183.00 L 610.25 182.75 L 610.25 145.25 L 609.75 144.75 L 603.75 144.75 L 603.50 145.25 L 603.50 187.25 L 602.25 187.50 L 596.25 180.25 L 590.00 171.75 L 579.00 158.25 L 578.00 156.50 L 568.75 145.25 L 568.00 144.75 L 563.00 144.75 Z M 518.50 144.75 L 518.00 145.00 L 517.75 145.75 L 517.75 200.00 L 518.25 200.75 L 524.25 200.75 L 524.75 200.25 L 524.75 145.25 L 524.00 144.75 Z M 433.00 144.75 L 432.50 145.50 L 432.50 200.00 L 433.00 200.75 L 439.00 200.75 L 439.50 200.00 L 439.25 176.25 L 439.75 175.75 L 472.25 175.75 L 472.75 176.25 L 472.75 200.25 L 473.00 200.75 L 477.00 200.75 L 477.25 201.00 L 479.50 200.75 L 479.75 200.25 L 479.75 145.00 L 479.50 144.75 L 473.25 144.75 L 472.75 145.25 L 472.75 169.50 L 472.50 169.75 L 439.75 169.75 L 439.25 169.25 L 439.25 145.25 L 438.75 144.75 Z M 292.25 144.75 L 291.75 145.25 L 290.75 147.75 L 287.75 153.25 L 287.75 153.75 L 285.75 157.75 L 285.75 158.50 L 285.00 159.50 L 284.75 160.75 L 283.75 162.25 L 282.75 165.00 L 282.00 166.00 L 281.75 167.25 L 281.00 168.25 L 280.75 169.50 L 280.00 170.50 L 279.75 171.75 L 278.75 173.25 L 273.75 184.75 L 272.75 186.25 L 271.50 189.50 L 271.00 190.00 L 269.75 193.50 L 269.00 194.50 L 268.75 195.75 L 266.75 199.25 L 266.75 200.75 L 267.25 201.00 L 272.75 201.00 L 273.75 200.50 L 274.00 199.25 L 275.25 196.50 L 275.75 196.00 L 276.00 194.75 L 276.75 193.75 L 278.00 190.50 L 278.75 189.50 L 279.00 188.25 L 280.50 186.25 L 309.50 186.25 L 310.75 187.50 L 310.75 188.25 L 312.75 191.75 L 314.00 195.25 L 315.75 198.25 L 316.25 200.25 L 317.25 201.00 L 323.25 201.00 L 323.75 200.75 L 323.75 199.50 L 322.00 196.50 L 321.75 195.25 L 321.00 194.25 L 319.75 190.75 L 319.00 189.75 L 318.75 188.50 L 317.00 185.50 L 317.00 184.75 L 315.00 181.00 L 314.75 179.75 L 313.00 176.75 L 311.75 173.25 L 311.00 172.50 L 310.75 171.25 L 309.00 168.25 L 307.75 164.75 L 307.25 164.25 L 306.00 161.00 L 305.00 159.50 L 305.00 158.75 L 302.50 153.50 L 302.00 153.00 L 301.75 151.75 L 301.25 151.25 L 299.75 147.50 L 299.00 146.50 L 298.75 145.25 L 298.00 144.75 Z M 294.50 153.75 L 295.75 154.00 L 296.00 155.00 L 297.75 158.00 L 298.00 159.25 L 300.00 163.25 L 300.00 163.75 L 302.75 168.75 L 303.00 170.00 L 303.75 171.00 L 304.00 172.25 L 304.50 172.75 L 305.00 174.50 L 305.75 175.75 L 305.75 176.50 L 307.00 179.00 L 307.00 180.25 L 306.75 180.50 L 288.25 180.75 L 288.00 180.50 L 283.25 180.50 L 283.00 180.25 L 283.00 178.75 L 283.75 177.75 L 287.00 170.00 L 287.75 169.00 L 288.00 167.75 L 288.75 166.75 L 289.00 165.50 L 289.75 164.50 L 290.00 163.25 L 290.75 162.25 L 290.75 161.75 Z M 671.25 144.00 L 671.00 144.25 L 668.75 144.25 L 665.00 145.00 L 659.50 147.00 L 654.50 150.00 L 650.75 153.50 L 647.00 159.00 L 647.00 159.50 L 646.00 161.00 L 645.75 162.50 L 645.00 163.75 L 644.75 165.75 L 644.00 167.50 L 643.75 175.50 L 645.00 182.00 L 645.75 183.25 L 646.00 184.75 L 646.75 185.75 L 648.00 188.75 L 649.25 190.50 L 653.50 195.00 L 655.75 196.75 L 660.00 199.00 L 660.50 199.00 L 661.50 199.75 L 663.25 200.00 L 666.75 201.25 L 668.50 201.25 L 669.50 201.75 L 675.75 201.75 L 677.00 201.25 L 681.25 200.75 L 683.00 200.00 L 684.50 199.75 L 685.75 199.00 L 686.50 199.00 L 688.00 198.00 L 689.25 197.75 L 690.00 197.00 L 691.00 196.75 L 695.00 193.75 L 695.25 193.25 L 695.25 171.75 L 694.75 171.00 L 673.50 171.00 L 673.00 171.50 L 673.00 176.00 L 673.50 176.50 L 688.00 176.50 L 688.75 177.25 L 688.50 178.50 L 688.50 189.25 L 688.75 190.50 L 687.25 191.75 L 686.75 191.75 L 685.75 192.50 L 684.00 193.00 L 682.75 193.75 L 681.00 194.00 L 679.50 194.75 L 676.00 195.00 L 675.00 195.50 L 671.00 195.50 L 669.75 195.00 L 666.50 194.75 L 665.00 194.00 L 663.50 193.75 L 658.75 190.75 L 655.00 187.00 L 653.00 183.75 L 653.00 183.00 L 652.00 181.25 L 650.75 175.00 L 651.00 167.75 L 653.00 162.00 L 656.00 157.50 L 658.25 155.25 L 661.50 153.00 L 666.50 151.00 L 670.25 150.75 L 671.25 150.25 L 674.50 150.25 L 676.00 150.75 L 679.50 151.00 L 681.00 151.75 L 682.75 152.00 L 683.25 152.50 L 686.75 154.00 L 689.00 155.75 L 690.50 155.75 L 693.25 152.25 L 693.25 151.00 L 688.75 148.00 L 687.75 147.75 L 686.25 146.75 L 685.00 146.50 L 684.50 146.00 L 682.75 145.75 L 681.50 145.00 L 676.75 144.50 L 675.50 144.00 Z M 376.00 144.00 L 374.50 144.50 L 372.75 144.50 L 370.50 145.00 L 368.00 146.00 L 367.25 146.00 L 366.25 146.75 L 365.50 146.75 L 359.75 150.00 L 356.00 153.50 L 353.75 156.25 L 352.00 159.25 L 351.75 160.50 L 350.00 164.25 L 349.75 166.25 L 349.00 168.25 L 348.75 174.75 L 350.00 181.25 L 350.50 182.00 L 351.00 184.25 L 351.75 185.25 L 352.00 186.50 L 352.75 187.25 L 353.00 188.25 L 354.75 190.75 L 358.50 194.75 L 361.25 196.75 L 364.75 198.75 L 370.25 200.75 L 372.50 201.25 L 374.25 201.25 L 374.50 201.50 L 381.25 201.50 L 382.50 201.00 L 384.50 201.00 L 386.75 200.00 L 387.75 200.00 L 392.75 197.75 L 396.75 195.00 L 398.75 193.00 L 398.75 191.75 L 397.25 190.75 L 395.50 188.75 L 394.00 188.75 L 393.25 189.75 L 390.50 191.75 L 386.75 193.75 L 384.00 194.75 L 381.00 195.00 L 379.50 195.50 L 376.50 195.50 L 375.25 195.00 L 372.00 194.75 L 370.50 194.00 L 369.00 193.75 L 364.50 191.00 L 360.25 186.75 L 358.00 183.00 L 357.75 181.50 L 357.00 180.25 L 356.00 175.25 L 356.00 169.75 L 357.00 166.00 L 357.00 165.00 L 357.75 163.75 L 358.00 162.50 L 361.00 158.00 L 363.25 155.75 L 366.75 153.25 L 372.00 151.00 L 376.00 150.75 L 376.25 150.50 L 382.75 150.75 L 389.00 153.00 L 392.25 155.00 L 394.25 156.75 L 395.25 156.75 L 398.75 153.25 L 398.75 152.00 L 396.25 150.00 L 394.00 148.75 L 393.25 148.00 L 392.75 148.00 L 390.75 146.75 L 390.00 146.75 L 389.00 146.00 L 388.25 146.00 L 385.00 144.75 L 381.75 144.50 L 380.25 144.00 Z M 211.25 144.00 L 211.00 144.25 L 209.25 144.25 L 208.00 144.75 L 205.25 145.00 L 204.00 145.75 L 203.25 145.75 L 201.50 146.75 L 200.25 147.00 L 195.50 150.00 L 190.75 154.50 L 188.00 158.50 L 187.75 159.50 L 187.00 160.50 L 186.75 161.75 L 186.00 162.75 L 185.75 164.75 L 184.75 168.00 L 184.50 174.25 L 184.75 174.50 L 185.00 178.75 L 185.75 180.50 L 186.25 183.00 L 186.75 183.75 L 186.75 184.50 L 190.00 190.00 L 193.50 194.00 L 198.50 197.75 L 202.75 199.75 L 204.50 200.00 L 205.75 200.75 L 208.75 201.00 L 210.00 201.50 L 217.00 201.50 L 218.00 201.00 L 220.25 201.00 L 226.25 198.75 L 230.75 196.00 L 235.50 191.50 L 238.75 186.75 L 239.00 185.75 L 239.75 184.75 L 240.25 182.75 L 240.75 182.25 L 241.00 180.25 L 241.75 178.75 L 241.75 177.25 L 242.00 177.00 L 242.00 169.00 L 241.75 168.75 L 241.75 166.75 L 241.00 165.00 L 240.75 163.00 L 240.25 162.50 L 240.00 161.25 L 238.75 158.50 L 235.75 154.25 L 230.25 149.00 L 226.75 147.00 L 225.50 146.75 L 224.50 146.00 L 223.00 145.75 L 221.75 145.00 L 218.00 144.25 L 216.25 144.25 L 216.00 144.00 Z M 212.25 150.25 L 215.00 150.25 L 216.00 150.75 L 219.75 151.00 L 221.00 151.75 L 222.50 152.00 L 223.50 152.75 L 224.50 153.00 L 227.25 155.00 L 230.75 158.75 L 232.75 162.00 L 232.75 162.50 L 233.75 164.25 L 234.00 166.00 L 234.50 167.00 L 234.75 170.50 L 235.00 170.75 L 235.00 176.25 L 234.75 176.50 L 234.75 178.00 L 233.75 180.50 L 233.75 181.50 L 232.75 183.25 L 232.75 183.75 L 230.00 187.75 L 226.75 191.00 L 224.25 192.75 L 219.25 194.75 L 216.25 195.00 L 215.00 195.50 L 212.25 195.50 L 212.00 195.25 L 207.25 194.75 L 205.25 193.75 L 204.50 193.75 L 199.75 190.75 L 195.75 186.50 L 194.00 183.50 L 192.00 177.25 L 192.00 175.25 L 191.50 173.25 L 191.75 170.75 L 192.00 170.50 L 192.00 168.00 L 192.75 166.00 L 193.00 164.25 L 195.00 160.50 L 195.00 160.00 L 196.25 158.25 L 199.75 154.75 L 202.00 153.25 L 203.50 152.75 L 204.50 152.00 L 206.00 151.75 L 207.50 151.00 L 210.50 150.75 Z M 134.00 144.00 L 133.75 144.25 L 132.25 144.25 L 128.50 145.00 L 127.00 145.75 L 126.00 145.75 L 124.00 146.75 L 122.75 147.00 L 119.25 149.00 L 113.75 153.75 L 111.00 157.25 L 108.00 163.75 L 107.75 165.75 L 107.00 167.50 L 106.75 175.75 L 107.00 176.00 L 107.00 178.00 L 107.75 180.00 L 108.00 182.00 L 108.75 183.25 L 108.75 184.25 L 111.75 189.75 L 113.00 191.50 L 116.25 194.75 L 120.50 197.75 L 125.00 199.75 L 126.75 200.00 L 128.00 200.75 L 130.25 201.25 L 132.00 201.25 L 132.25 201.50 L 138.50 201.75 L 139.50 201.25 L 142.75 201.00 L 149.00 198.75 L 153.75 195.75 L 154.25 195.00 L 156.75 193.00 L 156.75 192.00 L 155.25 191.00 L 153.00 188.75 L 152.00 188.75 L 148.50 191.75 L 145.25 193.25 L 144.75 193.75 L 144.00 193.75 L 141.75 194.75 L 140.25 194.75 L 138.50 195.25 L 134.00 195.25 L 133.75 195.00 L 130.00 194.75 L 128.50 194.00 L 127.00 193.75 L 123.50 191.75 L 121.25 190.00 L 118.00 186.50 L 116.25 183.75 L 115.75 182.00 L 115.00 181.00 L 113.75 174.75 L 113.75 171.75 L 114.00 171.50 L 114.25 167.75 L 115.00 164.75 L 117.00 161.00 L 117.00 160.50 L 119.00 157.75 L 120.75 156.00 L 123.50 154.00 L 127.25 152.00 L 129.25 151.50 L 130.00 151.00 L 133.75 150.75 L 135.25 150.25 L 137.25 150.25 L 138.75 150.75 L 142.25 151.00 L 148.50 154.00 L 151.25 156.00 L 151.75 156.75 L 153.25 156.75 L 156.50 153.50 L 156.75 152.00 L 156.00 151.75 L 152.75 149.00 L 147.00 146.00 L 145.50 145.75 L 144.00 145.00 L 142.75 145.00 L 141.25 144.50 L 139.00 144.50 L 137.75 144.00 Z M 751.00 21.00 L 751.00 94.75 L 751.75 95.25 L 800.50 95.25 L 801.00 94.50 L 801.00 86.00 L 800.25 85.50 L 762.25 85.50 L 762.00 85.25 L 762.00 21.00 L 761.50 20.50 L 752.00 20.50 Z M 689.00 20.75 L 686.75 24.75 L 682.75 34.25 L 682.00 35.25 L 681.75 36.50 L 681.00 37.50 L 680.75 38.75 L 680.25 39.25 L 678.00 44.25 L 677.75 45.50 L 676.00 49.00 L 675.75 50.25 L 673.75 54.00 L 673.75 54.75 L 673.25 55.25 L 671.75 59.00 L 671.00 60.00 L 670.75 61.25 L 670.00 62.25 L 669.75 63.50 L 668.75 65.25 L 668.75 66.00 L 668.00 67.00 L 668.00 67.50 L 664.75 74.25 L 663.75 77.25 L 663.00 78.25 L 662.75 79.50 L 661.75 81.25 L 661.00 83.50 L 657.75 89.75 L 656.75 92.75 L 656.00 93.50 L 656.00 95.00 L 656.25 95.25 L 666.50 95.25 L 667.25 95.00 L 667.75 94.25 L 668.00 93.00 L 669.75 90.00 L 671.00 86.50 L 671.75 85.50 L 672.00 84.25 L 672.75 83.25 L 673.00 82.00 L 674.00 80.25 L 674.75 78.00 L 675.50 77.00 L 712.75 77.00 L 713.75 78.25 L 714.00 79.50 L 714.75 80.50 L 715.00 81.75 L 715.75 82.75 L 716.00 84.00 L 716.75 85.00 L 717.00 86.25 L 717.75 87.25 L 719.00 91.00 L 719.50 91.50 L 720.00 93.25 L 721.00 95.00 L 730.50 95.00 L 730.75 95.25 L 732.50 95.00 L 732.50 94.00 L 730.00 89.00 L 729.75 87.75 L 729.00 86.75 L 728.75 85.50 L 728.00 84.50 L 728.00 83.75 L 726.00 80.00 L 726.00 79.25 L 724.00 75.25 L 723.75 74.00 L 723.00 73.00 L 722.75 71.75 L 722.00 70.75 L 721.75 69.50 L 721.00 68.50 L 720.75 67.25 L 719.50 64.50 L 719.00 64.00 L 719.00 63.25 L 718.00 61.75 L 718.00 61.00 L 717.00 59.50 L 717.00 58.75 L 714.75 54.25 L 714.75 53.75 L 714.00 52.75 L 713.75 51.50 L 712.00 48.50 L 711.75 47.00 L 711.00 46.00 L 709.75 42.50 L 709.25 42.00 L 709.00 41.00 L 708.00 39.50 L 707.75 38.25 L 706.00 35.25 L 705.75 34.00 L 705.25 33.50 L 704.75 31.75 L 704.00 30.75 L 703.75 29.25 L 703.25 28.75 L 702.75 27.00 L 702.00 26.00 L 702.00 25.25 L 701.00 23.75 L 700.00 21.00 L 699.00 20.50 Z M 693.75 34.50 L 695.00 34.75 L 695.00 35.50 L 695.75 36.50 L 696.75 39.50 L 698.75 43.00 L 699.00 44.25 L 699.75 45.25 L 699.75 46.00 L 700.75 47.50 L 701.00 48.75 L 701.75 49.75 L 701.75 50.50 L 706.00 59.50 L 706.00 60.00 L 706.75 61.00 L 707.00 62.25 L 708.75 66.00 L 708.75 67.50 L 708.50 67.75 L 679.50 67.75 L 679.25 67.50 L 679.25 66.50 L 680.75 64.00 L 681.00 62.50 L 681.75 61.50 L 682.00 60.25 L 682.50 59.75 L 683.25 57.75 L 683.75 57.25 L 684.00 56.00 L 686.00 52.00 L 686.00 51.25 L 686.75 50.25 L 687.00 49.00 L 687.75 48.00 L 688.00 46.75 L 689.25 44.00 L 689.75 43.50 L 690.00 42.25 L 691.00 40.75 L 691.00 40.00 L 691.50 39.50 L 693.00 36.25 L 693.25 35.00 Z M 573.25 20.50 L 572.50 21.50 L 572.50 31.75 L 572.75 32.00 L 572.75 94.75 L 573.25 95.25 L 582.75 95.25 L 583.50 94.75 L 583.75 94.00 L 583.75 41.50 L 585.00 41.25 L 593.75 52.00 L 594.00 52.75 L 594.50 53.00 L 600.00 60.50 L 605.75 67.50 L 606.00 68.25 L 608.00 70.75 L 608.75 71.25 L 610.00 73.25 L 616.75 81.50 L 617.75 83.25 L 623.00 89.50 L 626.25 94.00 L 627.25 95.00 L 633.50 95.00 L 633.75 95.25 L 637.25 95.00 L 637.50 94.75 L 637.50 90.25 L 637.75 90.00 L 637.75 21.50 L 637.00 20.50 L 627.00 20.50 L 626.50 21.25 L 626.75 70.00 L 626.50 70.25 L 626.50 75.00 L 625.25 75.25 L 617.00 65.00 L 614.50 61.25 L 610.00 55.75 L 607.00 51.50 L 594.00 35.50 L 589.00 28.50 L 584.00 22.50 L 583.50 21.25 L 582.50 20.50 Z M 445.25 20.50 L 444.50 21.25 L 444.50 94.50 L 445.25 95.25 L 455.00 95.00 L 455.50 94.50 L 455.50 87.25 L 455.75 87.00 L 455.75 21.25 L 455.00 20.50 Z M 237.00 20.75 L 236.75 21.25 L 236.75 94.75 L 237.25 95.25 L 247.00 95.25 L 247.75 94.50 L 247.75 63.25 L 248.00 63.00 L 250.25 63.00 L 250.50 62.75 L 287.25 62.75 L 288.00 63.50 L 288.00 94.75 L 288.25 95.00 L 298.75 95.00 L 299.00 94.50 L 299.00 21.25 L 298.75 20.75 L 298.25 20.50 L 288.50 20.50 L 288.00 21.00 L 288.00 52.25 L 287.50 52.75 L 248.25 52.75 L 247.75 52.25 L 247.75 21.25 L 247.00 20.50 Z M 110.00 20.50 L 109.00 21.25 L 109.00 94.50 L 110.00 95.25 L 119.75 95.00 L 120.25 94.25 L 120.25 61.00 L 120.50 60.75 L 120.50 56.75 L 120.25 56.50 L 120.25 21.00 L 119.75 20.50 Z M 20.25 20.75 L 20.00 21.00 L 20.00 25.75 L 19.75 26.00 L 20.00 94.75 L 21.00 95.25 L 30.25 95.25 L 30.75 95.00 L 31.00 94.25 L 31.00 63.25 L 33.00 62.75 L 51.75 62.75 L 52.00 63.00 L 70.50 63.00 L 70.75 63.25 L 71.00 94.50 L 72.25 95.25 L 81.25 95.25 L 81.75 95.00 L 82.00 94.50 L 82.00 21.25 L 81.75 20.75 L 81.00 20.50 L 72.00 20.50 L 71.25 20.75 L 70.75 21.50 L 70.75 23.50 L 71.00 23.75 L 71.00 52.25 L 70.50 52.75 L 31.25 52.75 L 31.00 52.50 L 31.00 21.00 L 30.50 20.50 Z M 380.00 21.00 L 378.50 21.75 L 376.75 22.00 L 375.75 22.75 L 375.00 22.75 L 371.50 24.75 L 367.50 28.25 L 364.75 32.00 L 363.00 36.50 L 363.00 38.25 L 362.50 40.00 L 363.00 46.50 L 363.75 48.00 L 364.00 49.75 L 365.75 52.75 L 368.00 55.00 L 373.25 58.75 L 374.50 59.00 L 375.75 59.75 L 377.75 60.25 L 379.25 61.00 L 380.50 61.00 L 382.00 61.75 L 384.50 62.00 L 386.00 62.75 L 388.50 63.00 L 390.75 63.75 L 392.00 63.75 L 395.00 64.75 L 397.00 65.00 L 398.50 65.75 L 400.25 66.00 L 404.50 68.00 L 407.00 70.25 L 408.50 73.00 L 409.00 75.25 L 408.50 78.50 L 407.50 80.75 L 405.50 83.00 L 403.00 84.75 L 401.75 85.00 L 400.50 85.75 L 398.00 86.25 L 396.25 86.25 L 395.50 86.75 L 387.00 86.75 L 381.75 85.75 L 381.00 85.25 L 378.75 84.75 L 377.50 84.00 L 376.25 83.75 L 372.00 81.50 L 367.00 77.75 L 365.75 77.75 L 362.00 82.50 L 360.25 84.25 L 360.25 85.75 L 362.50 87.00 L 365.00 89.00 L 370.00 91.75 L 371.25 92.00 L 372.25 92.75 L 373.75 93.00 L 375.00 93.75 L 376.50 94.00 L 379.00 95.00 L 380.25 95.00 L 382.00 95.75 L 386.50 96.00 L 388.00 96.50 L 395.00 96.50 L 395.25 96.25 L 397.75 96.25 L 399.25 95.75 L 400.75 95.75 L 402.50 95.00 L 403.50 95.00 L 405.50 94.00 L 407.00 93.75 L 408.00 93.00 L 409.25 92.75 L 410.00 92.00 L 410.50 92.00 L 412.50 90.75 L 415.75 87.75 L 417.75 84.75 L 419.00 82.25 L 419.00 81.50 L 419.75 80.25 L 420.00 79.00 L 420.00 71.25 L 418.75 67.25 L 416.75 64.00 L 414.00 61.00 L 410.75 58.75 L 410.25 58.75 L 407.25 57.00 L 405.25 56.50 L 403.75 55.75 L 402.75 55.75 L 401.50 55.00 L 399.25 54.75 L 397.75 54.00 L 394.25 53.50 L 392.50 52.75 L 390.50 52.50 L 389.50 52.00 L 387.00 51.75 L 384.25 50.75 L 383.25 50.75 L 382.00 50.00 L 380.75 49.75 L 379.25 48.75 L 378.75 48.75 L 375.75 46.25 L 374.75 44.50 L 374.75 43.50 L 374.00 41.25 L 374.25 38.75 L 375.00 36.25 L 375.75 35.00 L 377.50 33.00 L 380.75 31.00 L 381.50 31.00 L 383.75 30.00 L 387.50 29.75 L 389.00 29.25 L 393.25 29.25 L 394.75 29.75 L 398.50 30.00 L 400.25 30.75 L 402.00 31.00 L 403.25 31.75 L 404.50 32.00 L 405.50 32.75 L 406.75 33.00 L 407.25 33.50 L 408.75 34.00 L 409.50 34.75 L 410.50 35.00 L 411.75 36.00 L 413.00 36.00 L 415.75 32.50 L 416.75 30.75 L 418.00 29.50 L 418.00 28.25 L 411.00 24.00 L 409.75 23.75 L 409.25 23.25 L 407.50 22.75 L 406.25 22.00 L 404.50 21.75 L 401.75 20.75 L 400.00 20.75 L 397.50 20.00 L 394.50 20.00 L 394.25 19.75 L 388.00 19.75 L 387.75 20.00 L 385.00 20.00 L 382.75 20.75 Z M 512.50 19.75 L 506.25 21.00 L 504.75 21.75 L 503.00 22.00 L 500.25 23.25 L 499.75 23.75 L 498.50 24.00 L 497.75 24.75 L 497.25 24.75 L 496.00 25.75 L 495.50 25.75 L 491.25 29.00 L 487.00 33.75 L 483.00 40.00 L 480.00 47.50 L 479.50 51.25 L 479.00 52.25 L 479.00 55.50 L 478.75 55.75 L 479.00 63.75 L 479.75 65.75 L 479.75 67.25 L 480.75 70.00 L 481.00 72.00 L 481.75 73.25 L 481.75 74.00 L 483.00 76.75 L 487.75 83.75 L 493.25 88.75 L 500.00 92.75 L 501.25 93.00 L 503.00 94.00 L 504.50 94.25 L 505.00 94.75 L 507.00 95.00 L 509.00 95.75 L 513.50 96.00 L 514.75 96.50 L 521.75 96.50 L 522.75 96.00 L 525.50 96.00 L 528.00 95.25 L 531.25 94.75 L 532.50 94.00 L 533.50 94.00 L 534.75 93.25 L 536.75 92.75 L 537.25 92.25 L 538.25 92.00 L 543.75 89.00 L 546.25 87.00 L 547.00 86.75 L 547.75 85.75 L 547.75 55.75 L 547.50 55.25 L 547.00 55.00 L 518.75 55.00 L 518.25 55.25 L 518.00 55.75 L 518.00 61.50 L 518.25 61.75 L 518.50 64.25 L 519.00 64.50 L 536.50 64.50 L 537.00 65.00 L 537.00 79.25 L 537.25 80.50 L 536.00 81.75 L 532.75 83.75 L 531.50 84.00 L 530.50 84.75 L 528.75 85.00 L 527.00 85.75 L 524.00 86.00 L 522.50 86.50 L 520.50 86.50 L 520.25 86.75 L 516.50 86.75 L 514.75 86.25 L 512.75 86.25 L 511.25 85.75 L 510.00 85.75 L 508.75 85.00 L 507.00 84.75 L 501.75 81.75 L 497.75 78.25 L 494.00 73.25 L 494.00 72.75 L 493.00 71.25 L 492.75 70.00 L 492.00 69.00 L 491.75 67.25 L 491.25 66.50 L 490.50 62.50 L 490.50 61.00 L 490.25 60.75 L 490.25 58.75 L 490.00 58.50 L 491.00 50.50 L 492.00 48.00 L 492.00 47.25 L 492.75 46.25 L 493.00 45.00 L 496.00 40.25 L 499.00 37.00 L 501.75 34.75 L 503.75 33.75 L 504.50 33.00 L 505.00 33.00 L 506.00 32.25 L 507.75 31.75 L 509.00 31.00 L 511.50 30.75 L 512.25 30.25 L 513.50 30.00 L 522.25 30.00 L 522.50 30.25 L 524.25 30.25 L 525.25 30.75 L 527.75 31.00 L 530.50 32.00 L 531.50 32.75 L 532.75 33.00 L 536.25 35.00 L 539.75 37.75 L 541.00 37.75 L 545.00 33.75 L 546.50 31.75 L 546.50 30.50 L 544.75 28.75 L 539.75 25.00 L 535.50 22.75 L 534.75 22.75 L 533.50 22.00 L 532.00 21.75 L 530.50 21.00 L 528.25 20.75 L 524.50 19.75 L 520.75 19.75 L 520.50 19.50 Z M 177.25 19.75 L 173.50 20.75 L 171.00 21.00 L 170.25 21.50 L 168.00 22.00 L 166.75 22.75 L 165.25 23.00 L 164.75 23.50 L 161.00 25.25 L 156.00 29.00 L 150.25 35.50 L 149.75 36.75 L 147.75 39.50 L 147.75 40.00 L 145.75 43.75 L 145.75 44.50 L 144.75 47.00 L 144.50 49.00 L 144.00 50.00 L 144.00 51.50 L 143.50 53.25 L 143.50 56.00 L 143.25 56.25 L 143.25 61.25 L 143.75 62.25 L 144.00 66.75 L 144.75 68.75 L 145.00 70.50 L 145.50 71.25 L 145.75 72.75 L 146.75 74.75 L 147.00 76.00 L 151.00 82.50 L 156.25 87.75 L 160.50 90.75 L 164.75 93.00 L 165.50 93.00 L 166.50 93.75 L 168.00 94.00 L 169.25 94.75 L 172.25 95.25 L 173.00 95.75 L 174.50 95.75 L 176.25 96.25 L 178.50 96.25 L 178.75 96.50 L 186.00 96.50 L 186.75 96.00 L 189.75 96.00 L 193.25 95.00 L 195.50 94.75 L 196.25 94.25 L 198.75 93.75 L 200.00 93.00 L 200.75 93.00 L 201.75 92.25 L 203.50 91.75 L 207.50 89.50 L 211.75 86.50 L 212.00 85.75 L 212.00 55.50 L 211.50 55.00 L 183.25 55.00 L 182.75 55.50 L 182.75 63.50 L 183.25 64.25 L 183.75 64.50 L 189.00 64.50 L 189.25 64.75 L 201.00 64.50 L 201.50 65.00 L 201.50 79.25 L 201.75 80.50 L 200.50 81.75 L 197.50 83.50 L 195.75 84.00 L 194.75 84.75 L 193.00 85.00 L 191.50 85.75 L 188.25 86.00 L 184.75 86.75 L 180.50 86.75 L 179.00 86.25 L 174.50 85.75 L 173.75 85.25 L 171.50 84.75 L 167.50 82.75 L 164.75 80.75 L 161.75 77.75 L 159.00 74.25 L 159.00 73.75 L 158.00 72.50 L 157.75 71.25 L 157.25 70.75 L 155.75 66.50 L 155.75 65.25 L 155.00 63.50 L 154.75 55.75 L 155.00 55.50 L 155.00 52.75 L 155.75 50.75 L 156.00 48.75 L 158.25 43.75 L 161.75 38.75 L 167.00 34.25 L 171.00 32.00 L 172.50 31.75 L 173.75 31.00 L 178.25 30.00 L 187.25 30.00 L 187.50 30.25 L 189.00 30.25 L 191.25 31.00 L 192.25 31.00 L 193.50 31.75 L 194.25 31.75 L 196.50 33.00 L 197.00 33.00 L 203.25 37.00 L 204.00 38.00 L 205.00 38.00 L 207.75 35.50 L 210.00 32.50 L 211.00 31.75 L 211.00 30.75 L 208.75 28.50 L 204.00 25.00 L 199.75 22.75 L 195.00 21.00 L 189.00 19.75 L 185.50 19.75 L 185.25 19.50 Z"/>
  <path fill="#B96B33" fill-rule="evenodd" d="M 51.75 253.75 L 51.75 254.75 L 54.75 254.75 L 55.00 254.50 L 58.75 254.50 L 59.00 254.25 L 60.50 254.25 L 60.75 254.00 L 65.00 254.00 L 65.25 253.75 L 70.25 253.75 L 70.50 253.50 L 77.75 253.50 L 78.00 253.25 L 83.50 253.25 L 83.75 253.00 L 91.00 253.00 L 91.25 252.75 L 97.50 252.75 L 97.75 252.50 L 106.00 252.50 L 106.25 252.25 L 111.50 252.25 L 111.75 252.00 L 113.25 252.00 L 113.50 251.75 L 122.00 251.75 L 122.25 251.50 L 128.75 251.50 L 129.00 251.25 L 131.50 251.25 L 131.75 251.00 L 139.25 251.00 L 139.50 250.75 L 147.50 250.75 L 147.75 250.50 L 156.00 250.50 L 156.25 250.25 L 162.25 250.25 L 162.50 250.00 L 164.25 250.00 L 164.50 249.75 L 175.50 249.75 L 175.75 249.50 L 184.00 249.50 L 184.25 249.25 L 192.50 249.25 L 192.75 249.00 L 194.00 249.00 L 194.25 248.75 L 196.00 248.75 L 196.25 249.00 L 201.25 249.00 L 201.50 248.75 L 211.50 248.75 L 211.75 248.50 L 219.00 248.50 L 219.25 248.25 L 229.75 248.25 L 230.00 248.00 L 238.25 248.00 L 238.50 247.75 L 251.50 247.75 L 251.75 247.50 L 282.75 247.50 L 283.00 247.25 L 298.00 247.25 L 298.25 247.00 L 306.50 247.00 L 306.75 247.25 L 308.50 247.25 L 308.75 247.00 L 309.25 247.00 L 309.50 246.75 L 356.00 246.75 L 356.25 246.50 L 445.50 246.50 L 445.75 246.75 L 447.25 246.75 L 447.50 246.50 L 454.00 246.50 L 454.25 246.75 L 488.75 246.75 L 489.00 247.00 L 501.00 247.00 L 501.25 247.25 L 507.75 247.25 L 508.00 247.00 L 519.50 247.00 L 519.75 247.25 L 524.75 247.25 L 525.00 247.50 L 525.75 247.50 L 526.00 247.75 L 527.00 247.75 L 527.25 247.50 L 542.75 247.50 L 543.00 247.75 L 564.00 247.75 L 564.25 248.00 L 574.25 248.00 L 574.50 248.25 L 575.25 248.25 L 575.50 248.50 L 576.75 248.50 L 577.00 248.25 L 580.00 248.25 L 580.25 248.50 L 593.00 248.50 L 593.25 248.75 L 603.75 248.75 L 604.00 249.00 L 612.50 249.00 L 612.75 249.25 L 621.00 249.25 L 621.25 249.50 L 630.00 249.50 L 630.25 249.75 L 637.75 249.75 L 638.00 250.00 L 645.75 250.00 L 646.00 250.25 L 647.00 250.25 L 647.25 250.50 L 655.25 250.50 L 655.50 250.75 L 662.75 250.75 L 663.00 251.00 L 669.75 251.00 L 670.00 251.25 L 676.25 251.25 L 676.50 251.50 L 679.50 251.50 L 679.75 251.75 L 687.75 251.75 L 688.00 252.00 L 695.25 252.00 L 695.50 252.25 L 700.25 252.25 L 700.50 252.50 L 708.50 252.50 L 708.75 252.75 L 715.50 252.75 L 715.75 253.00 L 721.00 253.00 L 721.25 253.25 L 723.25 253.25 L 723.50 253.50 L 728.50 253.50 L 728.75 253.75 L 735.25 253.75 L 735.50 254.00 L 740.50 254.00 L 740.75 254.25 L 744.75 254.25 L 745.00 254.50 L 750.25 254.50 L 750.50 254.75 L 755.50 254.75 L 755.75 255.00 L 759.00 255.00 L 759.25 255.25 L 761.25 255.25 L 761.50 255.50 L 766.25 255.50 L 766.50 255.75 L 770.50 255.75 L 770.50 254.75 L 769.00 254.75 L 768.75 254.50 L 767.00 254.50 L 766.75 254.25 L 764.75 254.25 L 764.50 254.00 L 760.75 254.00 L 760.50 253.75 L 757.75 253.75 L 757.50 253.50 L 756.25 253.50 L 756.00 253.25 L 753.25 253.25 L 753.00 253.00 L 750.25 253.00 L 750.00 252.75 L 748.25 252.75 L 748.00 252.50 L 746.00 252.50 L 745.75 252.25 L 741.50 252.25 L 741.25 252.00 L 738.00 252.00 L 737.75 251.75 L 736.75 251.75 L 736.50 251.50 L 734.50 251.50 L 734.25 251.25 L 731.75 251.25 L 731.50 251.00 L 727.50 251.00 L 727.25 250.75 L 725.75 250.75 L 725.50 250.50 L 723.75 250.50 L 723.50 250.25 L 720.25 250.25 L 720.00 250.00 L 716.00 250.00 L 715.75 249.75 L 712.75 249.75 L 712.50 249.50 L 709.75 249.50 L 709.50 249.25 L 707.00 249.25 L 706.75 249.00 L 702.25 249.00 L 702.00 248.75 L 698.25 248.75 L 698.00 248.50 L 696.75 248.50 L 696.50 248.25 L 693.00 248.25 L 692.75 248.00 L 684.75 248.00 L 684.50 247.75 L 682.50 247.75 L 682.25 247.50 L 678.75 247.50 L 678.50 247.25 L 676.25 247.25 L 676.00 247.00 L 668.25 247.00 L 668.00 246.75 L 666.50 246.75 L 666.25 246.50 L 662.25 246.50 L 662.00 246.25 L 656.25 246.25 L 656.00 246.00 L 650.00 246.00 L 649.75 245.75 L 648.25 245.75 L 648.00 245.50 L 644.50 245.50 L 644.25 245.25 L 639.25 245.25 L 639.00 245.00 L 631.50 245.00 L 631.25 244.75 L 625.75 244.75 L 625.50 244.50 L 621.00 244.50 L 620.75 244.25 L 616.50 244.25 L 616.25 244.00 L 603.25 244.00 L 603.00 243.75 L 601.75 243.75 L 601.50 243.50 L 595.25 243.50 L 595.00 243.25 L 586.75 243.25 L 586.50 243.00 L 578.00 243.00 L 577.75 242.75 L 575.75 242.75 L 575.50 243.00 L 573.00 243.00 L 572.75 242.75 L 571.00 242.75 L 570.75 242.50 L 570.00 242.50 L 569.75 242.25 L 568.50 242.25 L 568.25 242.50 L 567.25 242.50 L 567.00 242.25 L 560.75 242.25 L 560.50 242.00 L 555.00 242.00 L 554.75 242.25 L 553.25 242.25 L 553.00 242.00 L 549.50 242.00 L 549.25 241.75 L 539.00 241.75 L 538.75 241.50 L 537.25 241.50 L 537.00 241.25 L 526.00 241.25 L 525.75 241.00 L 512.25 241.00 L 512.00 240.75 L 490.00 240.75 L 489.25 240.25 L 458.25 240.25 L 458.00 240.00 L 355.25 240.00 L 355.00 240.25 L 320.00 240.25 L 319.75 240.50 L 317.50 240.50 L 317.25 240.75 L 302.00 240.75 L 301.75 241.00 L 290.00 241.00 L 289.75 241.25 L 277.25 241.25 L 277.00 241.50 L 276.25 241.50 L 276.00 241.75 L 266.00 241.75 L 265.75 242.00 L 255.75 242.00 L 255.50 242.25 L 249.50 242.25 L 249.25 242.00 L 248.00 242.00 L 247.75 242.25 L 244.75 242.25 L 244.50 242.50 L 238.25 242.50 L 238.00 242.75 L 231.50 242.75 L 231.25 243.00 L 223.75 243.00 L 223.50 243.25 L 214.25 243.25 L 214.00 243.50 L 208.50 243.50 L 208.25 243.75 L 207.25 243.75 L 207.00 244.00 L 197.00 244.00 L 196.75 244.25 L 191.00 244.25 L 190.75 244.50 L 184.25 244.50 L 184.00 244.75 L 183.00 244.75 L 182.75 245.00 L 181.50 245.00 L 181.25 244.75 L 179.75 244.75 L 179.50 245.00 L 176.75 245.00 L 176.50 245.25 L 169.75 245.25 L 169.50 245.50 L 168.25 245.50 L 168.00 245.25 L 166.75 245.25 L 166.50 245.50 L 165.75 245.50 L 165.50 245.75 L 162.50 245.75 L 162.25 246.00 L 156.75 246.00 L 156.50 246.25 L 148.25 246.25 L 148.00 246.50 L 147.00 246.50 L 146.75 246.75 L 143.25 246.75 L 143.00 247.00 L 136.50 247.00 L 136.25 247.25 L 131.75 247.25 L 131.50 247.50 L 130.25 247.50 L 130.00 247.75 L 126.50 247.75 L 126.25 248.00 L 121.75 248.00 L 121.50 248.25 L 117.75 248.25 L 117.50 248.50 L 114.00 248.50 L 113.75 248.75 L 110.75 248.75 L 110.50 249.00 L 106.50 249.00 L 106.25 249.25 L 103.00 249.25 L 102.75 249.50 L 100.50 249.50 L 100.25 249.75 L 98.25 249.75 L 98.00 250.00 L 94.25 250.00 L 94.00 250.25 L 90.75 250.25 L 90.50 250.50 L 89.00 250.50 L 88.75 250.75 L 86.50 250.75 L 86.25 251.00 L 83.25 251.00 L 83.00 251.25 L 80.00 251.25 L 79.75 251.50 L 76.50 251.50 L 76.25 251.75 L 75.00 251.75 L 74.75 252.00 L 71.00 252.00 L 70.75 252.25 L 67.75 252.25 L 67.50 252.50 L 65.25 252.50 L 65.00 252.75 L 63.00 252.75 L 62.75 253.00 L 59.25 253.00 L 59.00 253.25 L 56.25 253.25 L 56.00 253.50 L 54.75 253.50 L 54.50 253.75 Z"/>
</svg>